<svg xmlns="http://www.w3.org/2000/svg" version="1.1" xmlns:xlink="http://www.w3.org/1999/xlink" xmlns:svgjs="http://svgjs.dev/svgjs" width="720" height="1440" preserveAspectRatio="none" viewBox="0 0 720 1440"><g mask="url(&quot;#SvgjsMask1039&quot;)" fill="none"><rect width="720" height="1440" x="0" y="0" fill="rgba(21, 67, 96, 1)"></rect><path d="M0,553.632C111.961,578.977,249.519,598.315,335.996,522.82C423.712,446.243,376.696,299.621,416.361,190.146C451.484,93.207,568.841,22.379,554.297,-79.696C539.755,-181.76,429.396,-238.955,346.491,-300.236C278.062,-350.817,192.481,-360.842,118.078,-402.136C15.327,-459.164,-57.381,-610.639,-172.78,-588.435C-284.431,-566.953,-286.331,-398.492,-358.308,-310.476C-427.33,-226.073,-562.163,-190.711,-585.181,-84.136C-608.19,22.397,-534.743,126.46,-471.912,215.515C-416.641,293.854,-328.584,334.179,-250.649,390.018C-167.867,449.33,-99.324,531.148,0,553.632" fill="#123952"></path><path d="M720 2002.165C824.127 1993.4850000000001 915.764 1937.415 999.5319999999999 1874.96 1078.769 1815.883 1144.855 1742.661 1187.591 1653.542 1230.904 1563.22 1273.297 1460.491 1244.257 1364.623 1215.92 1271.076 1115.202 1224.852 1039.1390000000001 1163.464 976.3109999999999 1112.757 915.845 1059.588 838.329 1037.009 760.922 1014.461 680.239 1019.264 601.359 1035.945 517.239 1053.734 439.381 1086.266 369.372 1136.179 282.878 1197.845 157.235 1252.041 149.64200000000005 1357.995 141.91999999999996 1465.755 290.032 1517.591 334.999 1615.824 379.901 1713.917 332.673 1847.783 408.824 1924.2 485.865 2001.509 611.235 2011.231 720 2002.165" fill="#184d6e"></path></g><defs><mask id="SvgjsMask1039"><rect width="720" height="1440" fill="#ffffff"></rect></mask></defs></svg>