<svg xmlns="http://www.w3.org/2000/svg" version="1.1" xmlns:xlink="http://www.w3.org/1999/xlink" xmlns:svgjs="http://svgjs.dev/svgjs" width="560" height="1440" preserveAspectRatio="none" viewBox="0 0 560 1440"><g mask="url(&quot;#SvgjsMask1175&quot;)" fill="none"><rect width="560" height="1440" x="0" y="0" fill="#0e2a47"></rect><g mask="url(&quot;#SvgjsMask1176&quot;)"><path d="M285 1335L255 1305L255 1275L255 1245L255 1215L255 1185L255 1155L255 1125M315 945L345 915L375 885L375 855L375 825L375 795M285 1095L255 1065L255 1035L255 1005L255 975M315 825L345 795L345 765L345 735L345 705M315 765L285 735L285 705M315 975L345 945L375 915L405 885M285 1485L285 1455L285 1425L285 1395L285 1365L285 1335L285 1305L285 1275L285 1245L285 1215L285 1185L285 1155L285 1125L285 1095L285 1065L315 1035L315 1005L315 975L315 945L315 915L315 885L315 855L315 825L315 795L315 765L315 735" stroke="#3a7cc3" stroke-width="5"></path><path d="M307.5 735 a7.5 7.5 0 1 0 15 0 a7.5 7.5 0 1 0 -15 0zM247.5 1125 a7.5 7.5 0 1 0 15 0 a7.5 7.5 0 1 0 -15 0zM367.5 795 a7.5 7.5 0 1 0 15 0 a7.5 7.5 0 1 0 -15 0zM247.5 975 a7.5 7.5 0 1 0 15 0 a7.5 7.5 0 1 0 -15 0zM337.5 705 a7.5 7.5 0 1 0 15 0 a7.5 7.5 0 1 0 -15 0zM277.5 705 a7.5 7.5 0 1 0 15 0 a7.5 7.5 0 1 0 -15 0zM397.5 885 a7.5 7.5 0 1 0 15 0 a7.5 7.5 0 1 0 -15 0z" fill="#3a7cc3"></path><path d="M255 1485L255 1455L255 1425L255 1395L255 1365" stroke="#3a7cc3" stroke-width="5"></path><path d="M247.5 1365 a7.5 7.5 0 1 0 15 0 a7.5 7.5 0 1 0 -15 0z" fill="#3a7cc3"></path><path d="M315 1485L315 1455L315 1425L315 1395L315 1365L315 1335L315 1305" stroke="#3a7cc3" stroke-width="5"></path><path d="M307.5 1305 a7.5 7.5 0 1 0 15 0 a7.5 7.5 0 1 0 -15 0z" fill="#3a7cc3"></path><path d="M195 1275L225 1245L225 1215L225 1185M165 1125L135 1095M165 1095L195 1065M165 1155L135 1125L105 1095L105 1065M225 1485L225 1455L225 1425L225 1395L225 1365L225 1335L225 1305L195 1275L195 1245L195 1215L195 1185L165 1155L165 1125L165 1095L165 1065L165 1035" stroke="#3a7cc3" stroke-width="5"></path><path d="M157.5 1035 a7.5 7.5 0 1 0 15 0 a7.5 7.5 0 1 0 -15 0zM217.5 1185 a7.5 7.5 0 1 0 15 0 a7.5 7.5 0 1 0 -15 0zM127.5 1095 a7.5 7.5 0 1 0 15 0 a7.5 7.5 0 1 0 -15 0zM187.5 1065 a7.5 7.5 0 1 0 15 0 a7.5 7.5 0 1 0 -15 0zM97.5 1065 a7.5 7.5 0 1 0 15 0 a7.5 7.5 0 1 0 -15 0z" fill="#3a7cc3"></path><path d="M345 1245L345 1215M345 1035L375 1005L375 975L375 945L405 915M345 1275L315 1245M345 1365L375 1335M345 1485L345 1455L345 1425L345 1395L345 1365L345 1335L345 1305L345 1275L345 1245L315 1215L315 1185L315 1155L315 1125L315 1095L315 1065L345 1035L345 1005" stroke="#3a7cc3" stroke-width="5"></path><path d="M337.5 1005 a7.5 7.5 0 1 0 15 0 a7.5 7.5 0 1 0 -15 0zM337.5 1215 a7.5 7.5 0 1 0 15 0 a7.5 7.5 0 1 0 -15 0zM397.5 915 a7.5 7.5 0 1 0 15 0 a7.5 7.5 0 1 0 -15 0zM307.5 1245 a7.5 7.5 0 1 0 15 0 a7.5 7.5 0 1 0 -15 0zM367.5 1335 a7.5 7.5 0 1 0 15 0 a7.5 7.5 0 1 0 -15 0z" fill="#3a7cc3"></path><path d="M195 1455L165 1425M195 1395L165 1365L165 1335L165 1305M195 1485L195 1455L195 1425L195 1395L195 1365L195 1335L195 1305" stroke="#3a7cc3" stroke-width="5"></path><path d="M187.5 1305 a7.5 7.5 0 1 0 15 0 a7.5 7.5 0 1 0 -15 0zM157.5 1425 a7.5 7.5 0 1 0 15 0 a7.5 7.5 0 1 0 -15 0zM157.5 1305 a7.5 7.5 0 1 0 15 0 a7.5 7.5 0 1 0 -15 0z" fill="#3a7cc3"></path><path d="M375 1455L405 1425M375 1485L375 1455L375 1425" stroke="#3a7cc3" stroke-width="5"></path><path d="M367.5 1425 a7.5 7.5 0 1 0 15 0 a7.5 7.5 0 1 0 -15 0zM397.5 1425 a7.5 7.5 0 1 0 15 0 a7.5 7.5 0 1 0 -15 0z" fill="#3a7cc3"></path><path d="M135 1455L105 1425L105 1395L105 1365M135 1335L105 1305L105 1275L105 1245M165 1485L135 1455L135 1425L135 1395L135 1365L135 1335L135 1305L135 1275" stroke="#3a7cc3" stroke-width="5"></path><path d="M127.5 1275 a7.5 7.5 0 1 0 15 0 a7.5 7.5 0 1 0 -15 0zM97.5 1365 a7.5 7.5 0 1 0 15 0 a7.5 7.5 0 1 0 -15 0zM97.5 1245 a7.5 7.5 0 1 0 15 0 a7.5 7.5 0 1 0 -15 0z" fill="#3a7cc3"></path></g></g><defs><mask id="SvgjsMask1175"><rect width="560" height="1440" fill="#ffffff"></rect></mask><mask id="SvgjsMask1176"><rect width="560" height="1440" fill="white"></rect><path d="M311.25 735 a3.75 3.75 0 1 0 7.5 0 a3.75 3.75 0 1 0 -7.5 0zM251.25 1125 a3.75 3.75 0 1 0 7.5 0 a3.75 3.75 0 1 0 -7.5 0zM371.25 795 a3.75 3.75 0 1 0 7.5 0 a3.75 3.75 0 1 0 -7.5 0zM251.25 975 a3.75 3.75 0 1 0 7.5 0 a3.75 3.75 0 1 0 -7.5 0zM341.25 705 a3.75 3.75 0 1 0 7.5 0 a3.75 3.75 0 1 0 -7.5 0zM281.25 705 a3.75 3.75 0 1 0 7.5 0 a3.75 3.75 0 1 0 -7.5 0zM401.25 885 a3.75 3.75 0 1 0 7.5 0 a3.75 3.75 0 1 0 -7.5 0z" fill="black"></path><path d="M251.25 1365 a3.75 3.75 0 1 0 7.5 0 a3.75 3.75 0 1 0 -7.5 0z" fill="black"></path><path d="M311.25 1305 a3.75 3.75 0 1 0 7.5 0 a3.75 3.75 0 1 0 -7.5 0z" fill="black"></path><path d="M161.25 1035 a3.75 3.75 0 1 0 7.5 0 a3.75 3.75 0 1 0 -7.5 0zM221.25 1185 a3.75 3.75 0 1 0 7.5 0 a3.75 3.75 0 1 0 -7.5 0zM131.25 1095 a3.75 3.75 0 1 0 7.5 0 a3.75 3.75 0 1 0 -7.5 0zM191.25 1065 a3.75 3.75 0 1 0 7.5 0 a3.75 3.75 0 1 0 -7.5 0zM101.25 1065 a3.75 3.75 0 1 0 7.5 0 a3.75 3.75 0 1 0 -7.5 0z" fill="black"></path><path d="M341.25 1005 a3.75 3.75 0 1 0 7.5 0 a3.75 3.75 0 1 0 -7.5 0zM341.25 1215 a3.75 3.75 0 1 0 7.5 0 a3.75 3.75 0 1 0 -7.5 0zM401.25 915 a3.75 3.75 0 1 0 7.5 0 a3.75 3.75 0 1 0 -7.5 0zM311.25 1245 a3.75 3.75 0 1 0 7.5 0 a3.75 3.75 0 1 0 -7.5 0zM371.25 1335 a3.75 3.75 0 1 0 7.5 0 a3.75 3.75 0 1 0 -7.5 0z" fill="black"></path><path d="M191.25 1305 a3.75 3.75 0 1 0 7.5 0 a3.75 3.75 0 1 0 -7.5 0zM161.25 1425 a3.75 3.75 0 1 0 7.5 0 a3.75 3.75 0 1 0 -7.5 0zM161.25 1305 a3.75 3.75 0 1 0 7.5 0 a3.75 3.75 0 1 0 -7.5 0z" fill="black"></path><path d="M371.25 1425 a3.75 3.75 0 1 0 7.5 0 a3.75 3.75 0 1 0 -7.5 0zM401.25 1425 a3.75 3.75 0 1 0 7.5 0 a3.75 3.75 0 1 0 -7.5 0z" fill="black"></path><path d="M131.25 1275 a3.75 3.75 0 1 0 7.5 0 a3.75 3.75 0 1 0 -7.5 0zM101.25 1365 a3.75 3.75 0 1 0 7.5 0 a3.75 3.75 0 1 0 -7.5 0zM101.25 1245 a3.75 3.75 0 1 0 7.5 0 a3.75 3.75 0 1 0 -7.5 0z" fill="black"></path></mask></defs></svg>