<svg xmlns="http://www.w3.org/2000/svg" version="1.1" xmlns:xlink="http://www.w3.org/1999/xlink" xmlns:svgjs="http://svgjs.dev/svgjs" width="1200" height="1440" preserveAspectRatio="none" viewBox="0 0 1200 1440"><g mask="url(&quot;#SvgjsMask1102&quot;)" fill="none"><rect width="1200" height="1440" x="0" y="0" fill="rgba(4, 19, 73, 1)"></rect><path d="M0,492.635C105.383,512.324,218.763,537.343,315.1,490.305C414.707,441.67,470.844,336.764,521.334,238.085C573.715,135.709,641.466,23.028,610.91,-87.836C580.602,-197.798,457.174,-247.809,367.859,-318.752C294.972,-376.646,224.464,-434.409,136.449,-464.702C45.218,-496.102,-51.648,-517.931,-145.472,-495.433C-241.76,-472.344,-325.475,-413.045,-390.477,-338.35C-455.568,-263.553,-483.627,-168.544,-512.494,-73.685C-546.254,37.252,-631.072,161.298,-573.088,261.72C-513.856,364.304,-357.414,340.912,-247.542,385.183C-162.383,419.496,-90.25,475.773,0,492.635" fill="#030d30"></path><path d="M1200 2008.046C1305.166 1988.415 1404.613 1956.2640000000001 1494.876 1898.836 1585.4769999999999 1841.193 1657.404 1764.7930000000001 1719.754 1677.364 1794.629 1572.374 1897.136 1469.23 1893.175 1340.337 1889.1480000000001 1209.318 1798.887 1092.546 1699.166 1007.47 1606.592 928.491 1483.733 894.604 1362.261 887.391 1256.492 881.11 1164.478 943.144 1061.886 969.627 954.75 997.283 834.9870000000001 980.9069999999999 745.88 1046.503 647.691 1118.784 552.167 1224.625 549.892 1346.529 547.623 1468.115 688.8489999999999 1539.871 734.568 1652.556 783.451 1773.038 721.402 1945.009 824.731 2023.9299999999998 926.287 2101.497 1074.38 2031.495 1200 2008.046" fill="#051a62"></path></g><defs><mask id="SvgjsMask1102"><rect width="1200" height="1440" fill="#ffffff"></rect></mask></defs></svg>